<?xml version="1.0" encoding="utf-8"?>
<!-- Generator: Adobe Illustrator 25.0.1, SVG Export Plug-In . SVG Version: 6.00 Build 0)  -->
<svg version="1.1" id="Слой_1" xmlns="http://www.w3.org/2000/svg" xmlns:xlink="http://www.w3.org/1999/xlink" x="0px" y="0px"
	 viewBox="0 0 105 51" style="enable-background:new 0 0 105 51;" xml:space="preserve">
<style type="text/css">
	.st0{fill-rule:evenodd;clip-rule:evenodd;fill:#FFFFFF;}
</style>
<path class="st0" d="M13.2,50.6c2.1,0.6,4.4,0.4,6.6-0.7l-4-1.3c-2.2,1.1-4.5,1.3-6.7,0.7L13.2,50.6z M20.5,49.6l-4-1.3
	c1-0.5,1.9-1.2,2.8-1.9l4,1.3C22.4,48.5,21.4,49.1,20.5,49.6z M23.7,47.4c0.7-0.6,1.4-1.3,2.1-2.1l-4-1.3c-0.7,0.8-1.4,1.5-2.1,2.1
	L23.7,47.4z M26.2,44.8l-4-1.3c0.6-0.7,1.2-1.5,1.7-2.2l4,1.3C27.4,43.4,26.8,44.1,26.2,44.8z M28.2,42.2c0.5-0.8,1-1.5,1.5-2.4
	l-4-1.3c-0.5,0.8-1,1.6-1.5,2.4L28.2,42.2z M30,39.4l-4-1.3c0.4-0.8,0.8-1.6,1.2-2.4l4,1.3C30.8,37.8,30.4,38.6,30,39.4z M31.4,36.5
	c0.4-0.8,0.7-1.6,1-2.5l-4-1.3c-0.3,0.9-0.7,1.7-1,2.5L31.4,36.5z M32.6,33.6l-4-1.3c0.3-0.8,0.6-1.7,0.8-2.5l4,1.3
	C33.2,31.9,32.9,32.8,32.6,33.6z M33.6,30.6c0.1-0.2,0.1-0.4,0.2-0.5c0.2-0.7,0.4-1.4,0.5-2l-4-1.3c-0.2,0.7-0.3,1.4-0.5,2.1
	c0,0.2-0.1,0.3-0.2,0.5L33.6,30.6z M34.4,27.5l-4-1.3c0.2-0.9,0.4-1.8,0.5-2.7l4,1.3C34.7,25.7,34.6,26.6,34.4,27.5z M34.9,24.4
	c0.1-0.9,0.2-1.8,0.3-2.7l-4-1.3c-0.1,0.9-0.2,1.8-0.3,2.7L34.9,24.4z M35.3,21.2l-4-1.3c0.1-0.9,0.1-1.9,0.1-2.8l4,1.3
	C35.4,19.3,35.3,20.2,35.3,21.2z M35.4,17.9c0-1-0.1-1.9-0.2-2.9l-4-1.3c0.1,0.9,0.2,1.9,0.2,2.9L35.4,17.9z M35.1,14.5l-4-1.3
	c-0.1-1-0.3-2-0.5-3l4,1.3C34.8,12.5,35,13.5,35.1,14.5z M34.5,11c-0.3-1.1-0.6-2.2-1.1-3.1l-4-1.3c0.4,1,0.8,2,1.1,3.1L34.5,11z
	 M33.2,7.2l-4-1.3c-0.7-1.4-1.5-2.6-2.4-3.6l4.1,1.3C31.7,4.6,32.5,5.8,33.2,7.2z M30,2.9c-0.9-0.8-1.9-1.3-3-1.6l-4-1.2
	c1.1,0.3,2.1,0.9,3,1.6L30,2.9z"/>
<path class="st0" d="M8.6,46.7c-3.3-1-5.6-4.4-6.7-9C0.8,32.9,1,26.8,2.7,20.6l0,0c1.8-6.3,4.7-11.6,8.1-15c3.3-3.3,7-4.9,10.3-3.9
	s5.6,4.4,6.7,9c1.1,4.8,0.9,10.9-0.8,17.1c-1.7,6.3-4.7,11.5-8.1,14.9C15.6,46.1,11.9,47.7,8.6,46.7z M0.7,38
	c1.2,5.1,3.8,8.8,7.6,10c3.7,1.1,7.9-0.6,11.5-4.2c3.5-3.6,6.6-9,8.4-15.5s2-12.8,0.8-17.8c-1.2-5.1-3.8-8.8-7.6-10h-0.1
	C17.7-0.6,13.6,1.1,10,4.7c-3.5,3.6-6.6,9-8.4,15.5v0.1C-0.2,26.8-0.4,33.1,0.7,38z"/>
<path class="st0" d="M9.7,43c-2.8-0.9-4.8-3.7-5.7-7.6c-0.9-4-0.8-9,0.7-14.2s3.9-9.6,6.8-12.4c2.8-2.8,5.9-4.1,8.8-3.3
	c2.8,0.9,4.8,3.7,5.7,7.6c0.9,4,0.8,9-0.7,14.2s-3.9,9.6-6.8,12.4C15.6,42.5,12.5,43.9,9.7,43z M3.5,35.5c1,4.1,3,7.1,6,7.9
	c3,0.9,6.3-0.5,9.2-3.4s5.4-7.3,6.9-12.6l0,0C27,22.1,27.2,17,26.2,13c-1-4.1-3-7.1-6-7.9c-3-0.9-6.3,0.5-9.2,3.4
	C8.2,11.3,5.7,15.7,4.2,21S2.6,31.4,3.5,35.5z"/>
<path class="st0" d="M17.4,22.6l4.4-6.4c0.2-0.2,0.3-0.4,0.5-0.5c0.1-0.1,0.2-0.1,0.4-0.1c0.1,0,0.2,0,0.3,0.1
	c0.1,0,0.1,0.1,0.2,0.2c0.2,0.3,0.2,0.8,0.2,1.2c-0.1,0.5-0.2,1-0.5,1.4l-6.3,9.1l0,0l-1,1.3l3.5-1.5c0.1,0,0.2-0.1,0.2-0.1
	c0.1,0,0.2,0,0.3,0.1c0.1,0.1,0.2,0.2,0.3,0.4C20,28,20,28.3,20,28.5c0,0.5-0.1,1.1-0.4,1.6c-0.2,0.4-0.5,0.8-0.8,0.9l-7,3
	c-1.3,0.6-1.7,0.7-2.5-0.8l-1.6-2.9c-0.5-0.8-0.6-2-0.5-3.3s0.6-2.6,1.3-3.6l1.4-2l3.5-5c0.2-0.2,0.3-0.4,0.5-0.5
	c0.1-0.1,0.3-0.1,0.4-0.1c0.1,0,0.2,0,0.3,0.1s0.1,0.1,0.2,0.2c0.1,0.1,0.1,0.2,0.1,0.4c0,0.1,0,0.2,0.1,0.3l-2,2.8l0.7,0.5l1.9-2.8
	c0.2-0.2,0.3-0.4,0.5-0.5c0.1-0.1,0.3-0.1,0.4-0.1s0.2,0,0.3,0.1c0.1,0.1,0.1,0.1,0.2,0.2s0.1,0.2,0.2,0.4c0,0.1,0,0.3,0.1,0.4
	C17.1,17.9,17,18,17,18l-2.1,3l0.7,0.5l2.1-3c0.2-0.2,0.3-0.4,0.5-0.5c0.1-0.1,0.3-0.1,0.4-0.1s0.2,0,0.3,0.1
	c0.1,0.1,0.1,0.1,0.2,0.2c0,0.1,0.1,0.1,0.1,0.2v0.1L16.8,22L17.4,22.6z M17.9,17.2c-0.1-0.2-0.1-0.4-0.2-0.6s-0.3-0.4-0.4-0.5
	c-0.2-0.2-0.5-0.3-0.8-0.3S16,15.9,15.7,16c-0.1,0-0.2,0.1-0.2,0.2c0-0.1-0.1-0.2-0.2-0.3c-0.1-0.2-0.3-0.4-0.4-0.5
	c-0.2-0.2-0.5-0.3-0.8-0.3s-0.5,0.1-0.8,0.2c-0.3,0.2-0.5,0.4-0.8,0.7l-3,4.3L7.6,23c-0.8,1.2-1.3,2.6-1.5,4c-0.1,1.7,0.1,3,0.7,4
	l1.6,2.9c1.2,2.1,1.7,1.9,3.5,1.2l7-3c0.5-0.2,0.9-0.7,1.2-1.3c0.3-0.6,0.5-1.3,0.5-2c0-0.4-0.1-0.8-0.2-1.1
	c-0.1-0.3-0.3-0.6-0.5-0.7c-0.2-0.2-0.5-0.3-0.8-0.3c-0.2,0-0.4,0-0.6,0.1l-0.7,0.3l5.5-8c0.4-0.5,0.6-1.2,0.7-1.8
	c0.1-0.7,0-1.3-0.3-1.8c-0.1-0.2-0.2-0.4-0.4-0.5c-0.2-0.2-0.5-0.3-0.8-0.2c-0.2,0-0.5,0.1-0.8,0.2c-0.3,0.2-0.5,0.4-0.7,0.7l-1.4,2
	c-0.1-0.2-0.2-0.3-0.4-0.5c-0.2-0.2-0.5-0.3-0.8-0.3C18.3,17.1,18.1,17.1,17.9,17.2z"/>
<path class="st0" d="M35.7,6.2H95c2,0,3.9,0.9,5.2,2.3c1.3,1.4,2.2,3.3,2.2,5.5v25c0,2.1-0.8,4.1-2.2,5.5c-1.3,1.4-3.2,2.3-5.2,2.3
	H29.3l-2.7,1.6H95c2.5,0,4.7-1.1,6.3-2.7c1.6-1.7,2.6-4,2.6-6.6v-25c0-2.6-1-4.9-2.6-6.6S97.4,4.8,95,4.8H33.5L35.7,6.2z"/>
<path class="st0" d="M51.8,15.7c0,1.4-0.4,2.4-1.2,3.2c-0.8,0.7-1.9,1.1-3.3,1.1h-0.9v4h-3.2V11.9h4c1.5,0,2.6,0.3,3.3,1
	C51.4,13.5,51.8,14.5,51.8,15.7z M46.4,17.3H47c0.5,0,0.9-0.1,1.1-0.4c0.3-0.3,0.4-0.7,0.4-1.2c0-0.8-0.4-1.2-1.3-1.2h-0.8V17.3z
	 M87.8,21.6c0.4,0,0.9-0.1,1.5-0.3v2.4c-0.4,0.2-0.8,0.3-1.2,0.4c-0.4,0.1-0.8,0.1-1.3,0.1c-1.1,0-1.8-0.3-2.3-0.8s-0.7-1.4-0.7-2.5
	V17h-1.1v-1.3l1.4-1l0.8-2h2v1.9h2.2V17H87v3.7C87,21.3,87.3,21.6,87.8,21.6z M58.9,14.5c0.3,0,0.5,0,0.8,0.1h0.2l-0.3,3.1
	c-0.2-0.1-0.6-0.1-1.1-0.1c-0.7,0-1.2,0.2-1.5,0.5s-0.5,0.8-0.5,1.4v4.6h-3.1v-9.4h2.3l0.5,1.5h0.2c0.3-0.5,0.6-0.9,1.1-1.2
	C58,14.6,58.5,14.5,58.9,14.5z M69.5,19.3c0,1.5-0.4,2.7-1.2,3.6c-0.8,0.9-1.9,1.3-3.4,1.3c-1.4,0-2.5-0.4-3.3-1.3s-1.2-2.1-1.2-3.6
	s0.4-2.7,1.2-3.6s1.9-1.3,3.4-1.3c0.9,0,1.7,0.2,2.4,0.6c0.7,0.4,1.2,1,1.6,1.7C69.3,17.5,69.5,18.3,69.5,19.3z M63.6,19.3
	c0,0.8,0.1,1.4,0.3,1.9c0.2,0.4,0.6,0.6,1.1,0.6s0.8-0.2,1-0.6s0.3-1,0.3-1.9c0-0.8-0.1-1.4-0.3-1.8c-0.2-0.4-0.6-0.6-1-0.6
	c-0.5,0-0.8,0.2-1,0.6C63.7,17.9,63.6,18.5,63.6,19.3z M81.2,24.1h-3.1v-9.4h3.1V24.1z M78,12.3c0-0.5,0.1-0.9,0.4-1.1
	c0.3-0.2,0.7-0.4,1.3-0.4c0.6,0,1,0.1,1.3,0.4c0.3,0.2,0.4,0.6,0.4,1.1c0,1-0.6,1.4-1.7,1.4C78.5,13.7,78,13.2,78,12.3z M76.8,17.1
	h-1.9v7h-3.1v-7h-1.2v-1.6l1.3-0.8v-0.2c0-1.2,0.2-2.1,0.7-2.7c0.5-0.5,1.3-0.8,2.3-0.8c0.4,0,0.8,0,1.2,0.1
	c0.4,0.1,0.8,0.2,1.3,0.3l-0.7,2.1c-0.4-0.1-0.8-0.2-1.1-0.2c-0.2,0-0.4,0.1-0.5,0.2c-0.1,0.2-0.2,0.4-0.2,0.8v0.2h1.9L76.8,17.1
	L76.8,17.1z"/>
<path class="st0" d="M48.7,31.3c-0.7,0-1.3,0.3-1.7,0.9c-0.4,0.6-0.6,1.5-0.6,2.5c0,2.2,0.8,3.4,2.5,3.4c0.5,0,1-0.1,1.4-0.2
	c0.5-0.1,0.9-0.3,1.4-0.5V40c-0.9,0.4-2,0.6-3.2,0.6c-1.7,0-3-0.5-3.9-1.5s-1.3-2.5-1.3-4.4c0-1.2,0.2-2.3,0.7-3.2
	c0.4-0.9,1.1-1.6,1.9-2.1c0.8-0.5,1.8-0.7,2.9-0.7c1.2,0,2.4,0.3,3.5,0.8L51.2,32c-0.4-0.2-0.8-0.4-1.2-0.5S49.2,31.3,48.7,31.3z
	 M56.7,40.5h-3V28.1h3V40.5z M61.8,40.5h-3v-9h3V40.5z M58.7,29.2c0-0.5,0.1-0.8,0.4-1c0.2-0.2,0.7-0.3,1.2-0.3c0.6,0,1,0.1,1.2,0.3
	c0.2,0.2,0.4,0.6,0.4,1c0,0.9-0.5,1.4-1.6,1.4C59.2,30.6,58.7,30.2,58.7,29.2z M67.8,40.7c-1.4,0-2.5-0.4-3.2-1.2
	c-0.7-0.8-1.1-1.9-1.1-3.4s0.4-2.7,1.2-3.5c0.8-0.8,1.9-1.2,3.4-1.2c1,0,2,0.2,2.8,0.7L70,34.3c-0.4-0.2-0.7-0.3-1-0.4
	c-0.3-0.1-0.6-0.1-1-0.1c-0.5,0-0.9,0.2-1.1,0.6c-0.3,0.4-0.4,1-0.4,1.7c0,1.4,0.5,2.2,1.5,2.2c0.9,0,1.7-0.3,2.5-0.8V40
	C69.8,40.4,68.9,40.7,67.8,40.7z M75.2,35.5c0.4-0.6,0.7-1.1,0.9-1.4l1.9-2.6h3.3l-3,3.8l3.2,5.2h-3.4l-1.9-3.2l-1,0.8v2.5h-3V28.1
	h3V33C75.3,33.9,75.3,34.7,75.2,35.5L75.2,35.5L75.2,35.5z M89.3,37.7c0,1-0.3,1.7-0.9,2.2s-1.5,0.7-2.7,0.7c-0.6,0-1.2,0-1.7-0.1
	s-1-0.2-1.5-0.4v-2.5c0.5,0.2,1,0.4,1.5,0.5c0.6,0.1,1.1,0.2,1.5,0.2c0.7,0,1-0.2,1-0.5c0-0.2-0.1-0.3-0.3-0.4
	c-0.2-0.1-0.7-0.4-1.6-0.7c-0.8-0.3-1.3-0.7-1.7-1.2c-0.3-0.4-0.5-1-0.5-1.6c0-0.8,0.3-1.5,0.9-2s1.5-0.7,2.6-0.7
	c0.6,0,1.1,0.1,1.6,0.2s1,0.3,1.6,0.6l-0.8,2c-0.4-0.2-0.8-0.3-1.3-0.5c-0.4-0.1-0.8-0.2-1.1-0.2c-0.5,0-0.7,0.1-0.7,0.4
	c0,0.2,0.1,0.3,0.2,0.4c0.2,0.1,0.7,0.3,1.5,0.7c0.6,0.3,1.1,0.5,1.4,0.8c0.3,0.2,0.5,0.5,0.7,0.9C89.3,36.9,89.3,37.3,89.3,37.7z"
	/>
</svg>
