<?xml version="1.0" encoding="utf-8"?>
<!-- Generator: Adobe Illustrator 25.0.1, SVG Export Plug-In . SVG Version: 6.00 Build 0)  -->
<svg version="1.1" id="Capa_1" xmlns="http://www.w3.org/2000/svg" xmlns:xlink="http://www.w3.org/1999/xlink" x="0px" y="0px"
	 viewBox="0 0 20 20" style="enable-background:new 0 0 20 20;" xml:space="preserve">
<style type="text/css">
	.st0{fill:#FFFFFF;}
</style>
<g>
	<g id="_x35__11_">
		<g>
			<path class="st0" d="M19.5,8.8l-8.3-8.3c-0.7-0.7-1.7-0.7-2.4,0s-0.7,1.7,0,2.4l7.1,7.1l-7.1,7.1c-0.7,0.7-0.7,1.7,0,2.4
				c0.7,0.7,1.7,0.7,2.4,0l8.3-8.3C20.2,10.5,20.2,9.5,19.5,8.8z M9.5,8.3l-6.6-7c-0.7-0.7-1.7-0.7-2.4,0s-0.7,1.8,0,2.5l5.4,5.7
				l-5.4,5.7c-0.7,0.7-0.7,1.8,0,2.5c0.7,0.7,1.7,0.7,2.4,0l6.6-7C10.2,10.1,10.2,9,9.5,8.3z"/>
		</g>
	</g>
</g>
</svg>
