<?xml version="1.0" encoding="utf-8"?>
<!-- Generator: Adobe Illustrator 25.0.1, SVG Export Plug-In . SVG Version: 6.00 Build 0)  -->
<svg version="1.1" id="Capa_1" xmlns="http://www.w3.org/2000/svg" xmlns:xlink="http://www.w3.org/1999/xlink" x="0px" y="0px"
	 viewBox="0 0 20 20" style="enable-background:new 0 0 20 20;" xml:space="preserve">
<style type="text/css">
	.st0{fill:#FFFFFF;}
</style>
<g>
	<g id="_x35__11_">
		<g>
			<path class="st0" d="M0.5,11.2l8.3,8.3c0.7,0.7,1.7,0.7,2.4,0c0.7-0.7,0.7-1.7,0-2.4L4.1,10l7.1-7.1c0.7-0.7,0.7-1.7,0-2.4
				c-0.7-0.7-1.7-0.7-2.4,0L0.5,8.8C-0.2,9.5-0.2,10.5,0.5,11.2z M10.5,11.7l6.6,7c0.7,0.7,1.7,0.7,2.4,0c0.7-0.7,0.7-1.8,0-2.5
				l-5.4-5.7l5.4-5.7c0.7-0.7,0.7-1.8,0-2.5c-0.7-0.7-1.7-0.7-2.4,0l-6.6,7C9.8,9.9,9.8,11,10.5,11.7z"/>
		</g>
	</g>
</g>
</svg>
