<?xml version="1.0" encoding="utf-8"?>
<!-- Generator: Adobe Illustrator 25.0.1, SVG Export Plug-In . SVG Version: 6.00 Build 0)  -->
<svg version="1.1" id="Layer_1" xmlns="http://www.w3.org/2000/svg" xmlns:xlink="http://www.w3.org/1999/xlink" x="0px" y="0px"
	 viewBox="0 0 20 20" style="enable-background:new 0 0 20 20;" xml:space="preserve">
<style type="text/css">
	.st0{fill:#FFFFFF;}
</style>
<g>
	<g>
		<path class="st0" d="M15.6,6.9c-0.1-0.1-0.2-0.2-0.3-0.2h-4l3.9-6.2c0.1-0.1,0.1-0.2,0-0.3C15.2,0.1,15.1,0,15,0H9.7
			C9.5,0,9.4,0.1,9.4,0.2l-5,10c-0.1,0.1,0,0.2,0,0.3c0.1,0.1,0.2,0.2,0.3,0.2h3.4l-3.7,8.9c-0.1,0.2,0,0.3,0.1,0.4
			c0.1,0,0.1,0,0.2,0c0.1,0,0.2,0,0.3-0.1L15.6,7.2C15.7,7.1,15.7,7,15.6,6.9z"/>
	</g>
</g>
</svg>
