<?xml version="1.0" encoding="utf-8"?>
<!-- Generator: Adobe Illustrator 25.0.1, SVG Export Plug-In . SVG Version: 6.00 Build 0)  -->
<svg version="1.1" id="Capa_1" xmlns="http://www.w3.org/2000/svg" xmlns:xlink="http://www.w3.org/1999/xlink" x="0px" y="0px"
	 viewBox="0 0 20 20" style="enable-background:new 0 0 20 20;" xml:space="preserve">
<style type="text/css">
	.st0{fill:#FFFFFF;}
</style>
<path class="st0" d="M19.6,5l-9.4-3.3c-0.1,0-0.3,0-0.4,0L0.4,5C0.2,5.1,0,5.3,0,5.6S0.2,6,0.4,6.1l9.4,3.3c0.1,0,0.1,0,0.2,0
	c0.1,0,0.1,0,0.2,0l9.4-3.3C19.8,6,20,5.8,20,5.6C20,5.3,19.8,5.1,19.6,5z"/>
<path class="st0" d="M18.6,12.8V7.7l-1.2,0.4v4.7c-0.4,0.2-0.6,0.6-0.6,1c0,0.4,0.2,0.8,0.6,1v2.9c0,0.3,0.3,0.6,0.6,0.6
	c0.3,0,0.6-0.3,0.6-0.6v-2.9c0.4-0.2,0.6-0.6,0.6-1C19.2,13.4,18.9,13,18.6,12.8z"/>
<path class="st0" d="M10,10.7c-0.2,0-0.4,0-0.6-0.1L4.1,8.7v2.6c0,0.6,0.7,1.2,2,1.6c1.1,0.4,2.5,0.6,3.9,0.6s2.8-0.2,3.9-0.6
	c1.3-0.4,2-1,2-1.6V8.7l-5.3,1.9C10.4,10.6,10.2,10.7,10,10.7z"/>
</svg>
