<?xml version="1.0" encoding="utf-8"?>
<!-- Generator: Adobe Illustrator 25.0.1, SVG Export Plug-In . SVG Version: 6.00 Build 0)  -->
<svg version="1.1" id="Слой_1" xmlns="http://www.w3.org/2000/svg" xmlns:xlink="http://www.w3.org/1999/xlink" x="0px" y="0px"
	 viewBox="0 0 20 20" style="enable-background:new 0 0 20 20;" xml:space="preserve">
<style type="text/css">
	.st0{fill:#FFFFFF;}
</style>
<path class="st0" d="M18.2,0C18.2,0,18.1,0,18.2,0l-9,0C7.8,0,6.7,1.1,6.7,2.5v0.8c0,0.5,0.4,0.8,0.8,0.8s0.8-0.4,0.8-0.8V2.5
	c0-0.5,0.4-0.8,0.8-0.8H13l-0.3,0.1c-0.7,0.2-1.1,0.9-1.1,1.6v12.5H9.2c-0.5,0-0.8-0.4-0.8-0.8v-1.7c0-0.5-0.4-0.8-0.8-0.8
	s-0.8,0.4-0.8,0.8V15c0,1.4,1.1,2.5,2.5,2.5h2.5v0.8c0,0.9,0.7,1.7,1.7,1.7c0.2,0,0.3,0,0.5-0.1l5-1.7c0.7-0.2,1.1-0.9,1.1-1.6v-15
	C20,0.7,19.2-0.1,18.2,0z"/>
<path class="st0" d="M8.9,7.7L5.6,4.4C5.4,4.2,5,4.1,4.7,4.2C4.4,4.4,4.2,4.7,4.2,5v2.5H0.8C0.4,7.5,0,7.9,0,8.3
	c0,0.5,0.4,0.8,0.8,0.8h3.3v2.5c0,0.3,0.2,0.6,0.5,0.8c0.3,0.1,0.7,0.1,0.9-0.2l3.3-3.3C9.2,8.6,9.2,8.1,8.9,7.7z"/>
</svg>
